<svg width="857" height="576" viewBox="0 0 857 576" fill="none" xmlns="http://www.w3.org/2000/svg">
<g clip-path="url(#clip0_3_79)">
<path opacity="0.1" d="M577.355 576C636.017 576 683.573 572.653 683.573 568.525C683.573 564.397 636.017 561.05 577.355 561.05C518.692 561.05 471.137 564.397 471.137 568.525C471.137 572.653 518.692 576 577.355 576Z" fill="#6C63FF"/>
<path opacity="0.1" d="M857 339.435C856.983 368.42 850.672 397.057 838.504 423.369C826.337 449.681 808.601 473.042 786.521 491.839C764.441 510.637 738.544 524.423 710.614 532.248C682.685 540.072 653.389 541.748 624.749 537.16H307.06C294.789 538.843 282.418 539.687 270.033 539.687C261.142 539.687 252.358 539.263 243.681 538.416C176.918 531.939 114.966 500.837 69.911 451.18C24.8563 401.523 -0.0684748 336.873 -5.02264e-05 269.843C-5.02264e-05 120.809 120.902 0 270.033 0C390.142 0 491.917 78.3667 526.991 186.723C563.171 155.964 609.142 139.107 656.644 139.182C767.283 139.182 857 228.836 857 339.435Z" fill="#4E148C"/>
<path opacity="0.1" d="M773.995 500.248C752.251 517.214 727.24 529.518 700.524 536.392C673.809 543.266 645.962 544.563 618.722 540.201H301.033C288.762 541.883 276.391 542.728 264.006 542.727C255.115 542.727 246.331 542.304 237.654 541.457C185.041 536.3 135.098 515.831 94.0128 482.586C52.9277 449.341 22.5062 404.782 6.51711 354.427C32.3835 299.195 98.837 259.893 176.75 259.893C252.674 259.893 317.751 297.222 344.911 350.242C358.286 347.811 371.853 346.593 385.446 346.601C464.137 346.601 531.137 386.719 556.435 442.781C577.391 436.433 599.174 433.231 621.071 433.28C685.25 433.31 741.658 459.973 773.995 500.248Z" fill="#4E148C"/>
<path d="M263.077 503.232C263.077 522.383 255.724 532.78 243.681 538.416C198.317 534.039 154.814 518.198 117.266 492.386C118.229 485.875 120.073 479.526 122.749 473.512L157.001 484.156L126.497 466.216C130.622 459.179 135.893 452.878 142.093 447.574L199.638 465.454L154.555 438.993C163.838 433.909 174.113 430.895 184.673 430.157C195.233 429.42 205.828 430.977 215.728 434.721C225.629 438.465 234.6 444.307 242.026 451.846C249.452 459.385 255.156 468.441 258.746 478.393L258.903 478.841C259.022 479.178 259.142 479.514 259.254 479.858C259.658 481.049 260.03 482.252 260.369 483.468C260.496 483.902 260.616 484.335 260.72 484.776C260.825 485.217 260.937 485.614 261.035 486.032C261.132 486.451 261.214 486.78 261.289 487.124C261.341 487.348 261.394 487.572 261.439 487.796C261.521 488.155 261.596 488.544 261.663 488.88C261.768 489.403 261.872 489.934 261.962 490.457C262.052 490.981 262.149 491.549 262.231 492.094C262.314 492.64 262.411 493.305 262.486 493.918C262.561 494.531 262.62 495.01 262.673 495.555C262.673 495.727 262.71 495.892 262.725 496.063C262.777 496.542 262.815 497.02 262.852 497.499C262.856 497.561 262.856 497.623 262.852 497.686C262.897 498.284 262.935 498.882 262.964 499.48C262.994 500.078 263.017 500.661 263.032 501.229C263.036 501.286 263.036 501.343 263.032 501.401C263.069 501.999 263.077 502.612 263.077 503.232Z" fill="#4E148C"/>
<path opacity="0.1" d="M263.077 503.232C263.077 522.383 255.724 532.78 243.681 538.416C214.345 535.593 185.675 527.956 158.826 515.812L160.053 514.997C165.595 511.327 171.325 507.575 177.848 506.327C183.585 505.228 189.502 506.155 195.329 505.826C205.473 505.205 215.022 500.832 222.115 493.559C226.282 489.254 229.596 483.969 234.57 480.68C239.97 477.137 246.822 476.375 253.225 477.257C255.085 477.528 256.928 477.905 258.746 478.385L258.903 478.834C259.022 479.17 259.142 479.507 259.254 479.851C259.658 481.042 260.03 482.245 260.369 483.461C260.496 483.894 260.616 484.328 260.72 484.769C260.825 485.21 260.937 485.606 261.035 486.025C261.132 486.443 261.214 486.772 261.289 487.116C261.341 487.34 261.394 487.565 261.438 487.789C261.521 488.148 261.596 488.536 261.663 488.873C261.768 489.396 261.872 489.927 261.962 490.45C262.052 490.973 262.149 491.541 262.231 492.087C262.314 492.633 262.411 493.298 262.486 493.911C262.56 494.524 262.62 495.002 262.673 495.548C262.673 495.72 262.71 495.884 262.725 496.056C262.777 496.534 262.815 497.013 262.852 497.491C262.856 497.553 262.856 497.616 262.852 497.678C262.897 498.276 262.935 498.874 262.964 499.472C262.994 500.07 263.017 500.653 263.032 501.221C263.036 501.278 263.036 501.336 263.032 501.393C263.069 501.999 263.077 502.612 263.077 503.232Z" fill="#4E148C"/>
<path d="M699.767 515.663C699.773 517.612 699.572 519.556 699.169 521.463C699.094 521.822 699.012 522.173 698.93 522.517C696.805 531.031 690.814 537.258 683.663 537.654C683.423 537.654 683.184 537.654 682.915 537.654C675.352 537.654 668.957 531.136 666.847 522.158C666.787 521.919 666.735 521.68 666.683 521.411C666.279 519.504 666.079 517.56 666.084 515.61C666.084 503.449 673.617 493.597 682.915 493.597C692.212 493.597 699.767 503.501 699.767 515.663Z" fill="#3F3D56"/>
<path opacity="0.1" d="M699.767 515.663C699.773 517.612 699.572 519.556 699.169 521.463C699.094 521.822 699.012 522.173 698.93 522.517C698.675 522.517 698.429 522.517 698.182 522.517C696.329 522.417 694.488 522.167 692.676 521.77C691.071 522.265 689.431 522.64 687.769 522.891C686.495 523.083 685.212 523.202 683.924 523.25C683.491 523.25 683.057 523.25 682.623 523.25C681.082 523.25 679.543 523.147 678.015 522.943C675.545 522.614 673.119 522.012 670.782 521.149C669.502 521.575 668.198 521.924 666.877 522.196C666.817 521.957 666.765 521.717 666.713 521.448C666.309 519.541 666.109 517.597 666.114 515.648C666.114 503.486 673.647 493.634 682.945 493.634C692.242 493.634 699.767 503.501 699.767 515.663Z" fill="black"/>
<path d="M735.672 474.655C735.679 469.304 734.424 464.026 732.007 459.25L712.214 465.402L729.591 455.198C726.677 450.99 722.855 447.489 718.407 444.955C713.958 442.42 708.997 440.917 703.889 440.555C703.076 439.322 702.184 438.144 701.219 437.027L672.794 445.87L696.11 432.168C691.65 428.748 686.415 426.478 680.868 425.561C675.321 424.644 669.633 425.107 664.308 426.91C658.983 428.712 654.185 431.799 650.338 435.896C646.491 439.993 643.714 444.974 642.253 450.399L666.6 478.408L640.188 459.317C633.497 464.059 628.734 471.045 626.767 479.003C624.799 486.96 625.758 495.36 629.468 502.67C633.178 509.98 639.393 515.716 646.981 518.83C654.568 521.945 663.023 522.232 670.804 519.639C677.843 522.225 685.535 522.438 692.706 520.245C697.705 521.338 702.886 521.298 707.868 520.128C712.849 518.957 717.505 516.686 721.493 513.481C725.48 510.275 728.698 506.218 730.91 501.606C733.122 496.994 734.271 491.946 734.273 486.832C734.273 486.085 734.273 485.337 734.199 484.59C735.178 481.369 735.674 478.021 735.672 474.655V474.655Z" fill="#4E148C"/>
<path opacity="0.1" d="M735.081 480.994C724.629 479.014 713.91 478.878 703.41 480.591C691.524 482.556 679.377 486.877 667.752 483.723C660.93 481.869 655.036 477.578 648.371 475.194C641.941 472.952 635.014 472.538 628.362 473.998C625.827 480.058 625.092 486.718 626.244 493.185C627.396 499.651 630.386 505.649 634.858 510.462C639.33 515.276 645.095 518.701 651.462 520.328C657.83 521.955 664.532 521.716 670.767 519.639C677.806 522.225 685.498 522.438 692.669 520.245C697.67 521.345 702.855 521.31 707.842 520.142C712.828 518.975 717.489 516.704 721.481 513.498C725.473 510.292 728.695 506.232 730.908 501.617C733.122 497.002 734.272 491.95 734.273 486.832C734.273 486.085 734.273 485.337 734.199 484.59C734.558 483.408 734.853 482.208 735.081 480.994Z" fill="#4E148C"/>
<path d="M533.723 187.186H530.522C529.576 187.186 528.809 187.953 528.809 188.898V240.056C528.809 241.001 529.576 241.768 530.522 241.768H533.723C534.669 241.768 535.436 241.001 535.436 240.056V188.898C535.436 187.953 534.669 187.186 533.723 187.186Z" fill="#3A3768"/>
<path d="M310.568 144.422H310.276C309.33 144.422 308.563 145.189 308.563 146.134V160.68C308.563 161.626 309.33 162.392 310.276 162.392H310.568C311.514 162.392 312.281 161.626 312.281 160.68V146.134C312.281 145.189 311.514 144.422 310.568 144.422Z" fill="#3A3768"/>
<path d="M310.905 177.327H310.142C309.196 177.327 308.429 178.093 308.429 179.039V206.89C308.429 207.835 309.196 208.602 310.142 208.602H310.905C311.851 208.602 312.618 207.835 312.618 206.89V179.039C312.618 178.093 311.851 177.327 310.905 177.327Z" fill="#3A3768"/>
<path d="M310.77 219.545H310.209C309.263 219.545 308.496 220.311 308.496 221.257V249.377C308.496 250.323 309.263 251.089 310.209 251.089H310.77C311.716 251.089 312.483 250.323 312.483 249.377V221.257C312.483 220.311 311.716 219.545 310.77 219.545Z" fill="#3A3768"/>
<path d="M503.219 85.0418H339.838C323.73 85.0418 310.673 98.0903 310.673 114.186V506.177C310.673 522.273 323.73 535.322 339.838 535.322H503.219C519.327 535.322 532.384 522.273 532.384 506.177V114.186C532.384 98.0903 519.327 85.0418 503.219 85.0418Z" fill="#3F3D56"/>
<path d="M428.208 98.4891H403.038C401.439 98.4891 400.143 99.7843 400.143 101.382V101.875C400.143 103.473 401.439 104.768 403.038 104.768H428.208C429.807 104.768 431.103 103.473 431.103 101.875V101.382C431.103 99.7843 429.807 98.4891 428.208 98.4891Z" fill="#E6E8EC"/>
<path d="M439.346 105.194C441.317 105.194 442.914 103.598 442.914 101.629C442.914 99.6594 441.317 98.0631 439.346 98.0631C437.376 98.0631 435.778 99.6594 435.778 101.629C435.778 103.598 437.376 105.194 439.346 105.194Z" fill="#E6E8EC"/>
<path d="M501.057 96.7699H475.7V99.8271C475.7 103.669 474.172 107.354 471.454 110.071C468.735 112.787 465.048 114.313 461.203 114.313H380.283C376.438 114.313 372.751 112.787 370.032 110.071C367.314 107.354 365.786 103.669 365.786 99.8271V96.7699H341.97C339.658 96.7699 337.368 97.2251 335.232 98.1094C333.097 98.9938 331.156 100.29 329.521 101.924C327.887 103.558 326.591 105.498 325.707 107.633C324.822 109.767 324.368 112.055 324.369 114.366V505.998C324.368 508.308 324.822 510.596 325.707 512.731C326.591 514.865 327.887 516.805 329.521 518.439C331.156 520.073 333.097 521.37 335.232 522.254C337.368 523.138 339.658 523.594 341.97 523.594H501.057C505.727 523.594 510.206 521.74 513.508 518.44C516.81 515.14 518.666 510.664 518.666 505.998V114.366C518.666 109.699 516.81 105.223 513.508 101.924C510.206 98.6238 505.727 96.7699 501.057 96.7699V96.7699Z" fill="#A4A8FF"/>
<path opacity="0.3" d="M443.969 167.041H332.515V184.981H443.969V167.041Z" fill="black" stroke="#6C63FF" stroke-miterlimit="10"/>
<path opacity="0.3" d="M359.443 289.63C372.663 289.63 383.38 278.92 383.38 265.71C383.38 252.499 372.663 241.79 359.443 241.79C346.224 241.79 335.507 252.499 335.507 265.71C335.507 278.92 346.224 289.63 359.443 289.63Z" fill="black" stroke="#6C63FF" stroke-miterlimit="10"/>
<path d="M352.711 261.225V270.195H358.695L366.176 278.006V253.406L358.695 261.225H352.711Z" fill="white"/>
<path opacity="0.3" d="M423.025 289.63C436.244 289.63 446.961 278.92 446.961 265.71C446.961 252.499 436.244 241.79 423.025 241.79C409.805 241.79 399.088 252.499 399.088 265.71C399.088 278.92 409.805 289.63 423.025 289.63Z" fill="black" stroke="#6C63FF" stroke-miterlimit="10"/>
<path d="M423.025 275.696C422.459 275.693 421.905 275.858 421.433 276.17C420.961 276.482 420.593 276.927 420.374 277.449C420.155 277.97 420.097 278.545 420.205 279.1C420.314 279.654 420.585 280.165 420.984 280.565C421.383 280.966 421.892 281.24 422.447 281.351C423.001 281.463 423.577 281.407 424.1 281.191C424.623 280.975 425.07 280.61 425.384 280.14C425.699 279.67 425.867 279.117 425.867 278.552C425.867 277.797 425.568 277.073 425.035 276.538C424.503 276.003 423.78 275.7 423.025 275.696V275.696ZM414.647 250.013C414.081 250.008 413.526 250.172 413.053 250.483C412.58 250.794 412.211 251.238 411.991 251.76C411.771 252.281 411.711 252.856 411.819 253.411C411.927 253.967 412.197 254.477 412.596 254.879C412.995 255.281 413.504 255.555 414.059 255.667C414.613 255.779 415.189 255.724 415.713 255.508C416.236 255.293 416.684 254.927 416.999 254.457C417.314 253.987 417.482 253.434 417.482 252.868C417.482 252.115 417.184 251.392 416.653 250.857C416.122 250.322 415.401 250.019 414.647 250.013V250.013ZM414.647 258.579C414.08 258.574 413.525 258.738 413.052 259.05C412.579 259.361 412.21 259.806 411.99 260.328C411.771 260.849 411.711 261.425 411.82 261.98C411.928 262.536 412.199 263.047 412.599 263.448C412.998 263.849 413.508 264.123 414.063 264.234C414.619 264.345 415.195 264.289 415.718 264.072C416.241 263.856 416.688 263.489 417.002 263.017C417.316 262.546 417.483 261.993 417.482 261.427C417.482 260.674 417.184 259.952 416.652 259.418C416.121 258.885 415.4 258.583 414.647 258.579V258.579ZM414.647 267.138C414.081 267.133 413.526 267.297 413.053 267.608C412.58 267.919 412.211 268.363 411.991 268.885C411.771 269.406 411.711 269.981 411.819 270.536C411.927 271.092 412.197 271.602 412.596 272.004C412.995 272.406 413.504 272.68 414.059 272.792C414.613 272.904 415.189 272.849 415.713 272.633C416.236 272.418 416.684 272.052 416.999 271.582C417.314 271.112 417.482 270.559 417.482 269.993C417.482 269.24 417.184 268.517 416.653 267.982C416.122 267.447 415.401 267.143 414.647 267.138V267.138ZM431.402 255.723C431.968 255.726 432.522 255.561 432.994 255.249C433.466 254.938 433.834 254.493 434.053 253.971C434.271 253.45 434.33 252.875 434.222 252.32C434.113 251.765 433.842 251.255 433.443 250.854C433.044 250.453 432.535 250.18 431.98 250.069C431.426 249.957 430.85 250.013 430.327 250.229C429.804 250.444 429.357 250.81 429.042 251.28C428.728 251.75 428.56 252.303 428.56 252.868C428.559 253.242 428.632 253.613 428.774 253.958C428.916 254.304 429.125 254.619 429.389 254.884C429.653 255.149 429.967 255.36 430.312 255.504C430.658 255.648 431.028 255.722 431.402 255.723V255.723ZM423.025 267.138C422.459 267.135 421.905 267.3 421.433 267.612C420.961 267.923 420.593 268.368 420.374 268.89C420.155 269.411 420.097 269.986 420.205 270.541C420.314 271.096 420.585 271.606 420.984 272.007C421.383 272.408 421.892 272.681 422.447 272.792C423.001 272.904 423.577 272.848 424.1 272.632C424.623 272.417 425.07 272.051 425.384 271.581C425.699 271.111 425.867 270.558 425.867 269.993C425.867 269.238 425.568 268.514 425.035 267.979C424.503 267.444 423.78 267.142 423.025 267.138V267.138ZM431.402 267.138C430.837 267.135 430.283 267.3 429.811 267.612C429.339 267.923 428.97 268.368 428.752 268.89C428.533 269.411 428.474 269.986 428.583 270.541C428.692 271.096 428.963 271.606 429.362 272.007C429.761 272.408 430.27 272.681 430.824 272.792C431.379 272.904 431.954 272.848 432.477 272.632C433 272.417 433.447 272.051 433.762 271.581C434.077 271.111 434.245 270.558 434.245 269.993C434.245 269.238 433.946 268.514 433.413 267.979C432.88 267.444 432.158 267.142 431.402 267.138V267.138ZM431.402 258.579C430.836 258.576 430.282 258.741 429.81 259.053C429.338 259.366 428.969 259.811 428.751 260.333C428.533 260.855 428.474 261.43 428.584 261.985C428.693 262.54 428.964 263.05 429.364 263.451C429.764 263.851 430.274 264.124 430.829 264.235C431.384 264.345 431.96 264.288 432.483 264.072C433.005 263.855 433.452 263.488 433.766 263.017C434.08 262.546 434.246 261.992 434.245 261.427C434.245 260.673 433.946 259.949 433.413 259.416C432.88 258.882 432.157 258.581 431.402 258.579V258.579ZM423.025 258.579C422.458 258.576 421.904 258.741 421.432 259.053C420.96 259.366 420.592 259.811 420.373 260.333C420.155 260.855 420.097 261.43 420.206 261.985C420.315 262.54 420.587 263.05 420.986 263.451C421.386 263.851 421.896 264.124 422.451 264.235C423.006 264.345 423.582 264.288 424.105 264.072C424.628 263.855 425.074 263.488 425.388 263.017C425.702 262.546 425.868 261.992 425.867 261.427C425.867 260.673 425.568 259.949 425.035 259.416C424.502 258.882 423.779 258.581 423.025 258.579V258.579ZM423.025 250.013C422.459 250.01 421.905 250.175 421.433 250.487C420.961 250.798 420.593 251.243 420.374 251.765C420.155 252.286 420.097 252.861 420.205 253.416C420.314 253.971 420.585 254.481 420.984 254.882C421.383 255.283 421.892 255.556 422.447 255.667C423.001 255.779 423.577 255.723 424.1 255.507C424.623 255.292 425.07 254.926 425.384 254.456C425.699 253.986 425.867 253.433 425.867 252.868C425.867 252.113 425.568 251.389 425.035 250.854C424.503 250.319 423.78 250.017 423.025 250.013V250.013Z" fill="white"/>
<g opacity="0.4">
<path opacity="0.3" d="M359.443 361.388C372.663 361.388 383.38 350.679 383.38 337.469C383.38 324.258 372.663 313.549 359.443 313.549C346.224 313.549 335.507 324.258 335.507 337.469C335.507 350.679 346.224 361.388 359.443 361.388Z" fill="black" stroke="#6C63FF" stroke-miterlimit="10"/>
<path d="M370.663 338.964H360.939V348.681H357.947V338.964H348.223V335.974H357.947V326.256H360.939V335.974H370.663V338.964Z" fill="white"/>
</g>
<path opacity="0.3" d="M486.606 289.63C499.826 289.63 510.542 278.92 510.542 265.71C510.542 252.499 499.826 241.79 486.606 241.79C473.386 241.79 462.669 252.499 462.669 265.71C462.669 278.92 473.386 289.63 486.606 289.63Z" fill="black" stroke="#6C63FF" stroke-miterlimit="10"/>
<path d="M486.606 251.126C484.814 251.15 483.044 251.526 481.398 252.233C479.752 252.939 478.261 253.964 477.01 255.246C475.76 256.529 474.775 258.045 474.111 259.709C473.447 261.372 473.118 263.149 473.141 264.94V275.681C473.134 276.278 473.243 276.871 473.465 277.425C473.686 277.98 474.014 278.485 474.431 278.913C474.848 279.34 475.345 279.682 475.894 279.917C476.442 280.153 477.032 280.278 477.63 280.286H482.118V267.945H476.134V264.955C476.134 262.179 477.237 259.518 479.201 257.555C481.165 255.593 483.828 254.49 486.606 254.49C489.383 254.49 492.047 255.593 494.011 257.555C495.975 259.518 497.078 262.179 497.078 264.955V267.945H491.094V280.278H495.582C496.179 280.272 496.77 280.147 497.319 279.912C497.868 279.676 498.366 279.335 498.783 278.907C499.2 278.48 499.528 277.974 499.749 277.419C499.97 276.864 500.079 276.271 500.07 275.674V264.94C500.094 263.149 499.764 261.372 499.1 259.709C498.437 258.045 497.451 256.529 496.201 255.246C494.951 253.964 493.46 252.939 491.814 252.233C490.167 251.526 488.398 251.15 486.606 251.126Z" fill="white"/>
<g opacity="0.4">
<path opacity="0.3" d="M423.025 361.388C436.244 361.388 446.961 350.679 446.961 337.469C446.961 324.258 436.244 313.549 423.025 313.549C409.805 313.549 399.088 324.258 399.088 337.469C399.088 350.679 409.805 361.388 423.025 361.388Z" fill="black" stroke="#6C63FF" stroke-miterlimit="10"/>
<path d="M432.001 334.905V328.925C431.998 328.698 431.95 328.474 431.861 328.266C431.771 328.058 431.641 327.869 431.479 327.711C431.316 327.552 431.124 327.428 430.913 327.344C430.702 327.259 430.477 327.218 430.25 327.221H409.052C408.595 327.217 408.155 327.394 407.828 327.713C407.501 328.033 407.315 328.468 407.309 328.925V345.975C407.317 346.431 407.504 346.866 407.83 347.185C408.156 347.504 408.595 347.682 409.052 347.68H430.243C430.701 347.684 431.141 347.507 431.469 347.187C431.797 346.868 431.985 346.433 431.993 345.975V339.995L438.725 346.812V328.088L432.001 334.905Z" fill="white"/>
</g>
<path opacity="0.3" d="M486.606 361.388C499.826 361.388 510.542 350.679 510.542 337.469C510.542 324.258 499.826 313.549 486.606 313.549C473.386 313.549 462.669 324.258 462.669 337.469C462.669 350.679 473.386 361.388 486.606 361.388Z" fill="black" stroke="#6C63FF" stroke-miterlimit="10"/>
<path d="M485.424 343.628C484.136 344.358 482.682 344.742 481.201 344.742C479.721 344.742 478.266 344.358 476.979 343.628C473.673 344.637 471.645 347.979 470.897 350.916H491.505C490.757 347.979 488.738 344.637 485.424 343.628ZM481.205 327.931C479.735 327.929 478.298 328.364 477.076 329.179C475.853 329.994 474.9 331.153 474.337 332.51C473.774 333.866 473.626 335.359 473.912 336.8C474.199 338.24 474.906 339.563 475.945 340.602C476.985 341.641 478.309 342.348 479.75 342.634C481.192 342.92 482.686 342.772 484.044 342.21C485.401 341.647 486.561 340.694 487.377 339.473C488.192 338.251 488.627 336.815 488.625 335.346C488.625 333.379 487.844 331.493 486.452 330.103C485.06 328.712 483.173 327.931 481.205 327.931V327.931ZM481.205 340.997C480.088 340.976 479.002 340.63 478.08 340C477.158 339.371 476.439 338.486 476.014 337.454H486.389C485.965 338.486 485.248 339.372 484.328 340.003C483.407 340.634 482.321 340.982 481.205 341.004V340.997Z" fill="white"/>
<path d="M491.273 346.431H502.314C501.97 344.88 501.229 343.444 500.163 342.265C499.097 341.086 497.742 340.203 496.233 339.704C494.944 340.433 493.488 340.817 492.006 340.818C491.013 340.827 490.025 340.66 489.089 340.324C488.568 341.239 487.907 342.066 487.129 342.776C488.841 343.56 490.283 344.831 491.273 346.431V346.431ZM490.151 333.537H497.198C496.77 334.566 496.051 335.448 495.129 336.075C494.207 336.702 493.121 337.046 492.006 337.065C491.4 337.061 490.798 336.955 490.226 336.751C490.134 337.351 489.981 337.939 489.77 338.508C490.792 338.834 491.872 338.935 492.937 338.803C494.001 338.672 495.025 338.312 495.937 337.748C496.849 337.184 497.628 336.429 498.22 335.536C498.813 334.642 499.204 333.631 499.368 332.572C499.532 331.512 499.465 330.43 499.171 329.399C498.876 328.369 498.362 327.414 497.663 326.601C496.964 325.787 496.097 325.135 495.122 324.689C494.147 324.242 493.087 324.012 492.014 324.014C490.765 324.016 489.537 324.332 488.443 324.933C487.349 325.534 486.424 326.4 485.753 327.453C486.875 328.099 487.847 328.975 488.605 330.024C489.363 331.073 489.89 332.27 490.151 333.537V333.537Z" fill="white"/>
<path d="M423.025 457.067C436.244 457.067 446.961 446.358 446.961 433.147C446.961 419.937 436.244 409.228 423.025 409.228C409.805 409.228 399.088 419.937 399.088 433.147C399.088 446.358 409.805 457.067 423.025 457.067Z" fill="#4E148C"/>
<path d="M410.735 439.053C412.044 437.817 413.535 436.788 415.155 436.003C415.406 435.891 415.619 435.709 415.766 435.477C415.914 435.246 415.99 434.976 415.986 434.702L416.113 430.053C420.687 428.694 425.576 428.825 430.071 430.426L429.944 435.076C429.94 435.346 430.007 435.612 430.138 435.848C430.27 436.084 430.46 436.282 430.692 436.421C432.317 437.267 433.788 438.378 435.045 439.71C435.18 439.853 435.342 439.968 435.521 440.049C435.701 440.129 435.895 440.173 436.091 440.179C436.288 440.184 436.484 440.151 436.667 440.081C436.851 440.011 437.019 439.905 437.162 439.77L440.962 436.167C441.249 435.895 441.416 435.521 441.427 435.126C441.438 434.731 441.293 434.347 441.022 434.059C438.725 431.636 435.973 429.688 432.922 428.328C429.872 426.968 426.584 426.221 423.245 426.131C419.906 426.041 416.582 426.608 413.462 427.802C410.343 428.996 407.489 430.792 405.065 433.088C404.922 433.223 404.808 433.385 404.728 433.565C404.648 433.744 404.604 433.938 404.6 434.134C404.595 434.331 404.629 434.526 404.7 434.71C404.77 434.893 404.877 435.061 405.012 435.203L408.61 439C408.746 439.143 408.908 439.257 409.088 439.337C409.268 439.417 409.461 439.46 409.658 439.465C409.855 439.47 410.05 439.436 410.234 439.365C410.417 439.294 410.585 439.188 410.727 439.053H410.735Z" fill="white"/>
<path opacity="0.3" d="M489.598 200.678C499.926 200.678 508.298 192.312 508.298 181.991C508.298 171.67 499.926 163.304 489.598 163.304C479.27 163.304 470.897 171.67 470.897 181.991C470.897 192.312 479.27 200.678 489.598 200.678Z" fill="black" stroke="#6C63FF" stroke-miterlimit="10"/>
<path d="M493.824 186.185C492.535 186.914 491.079 187.298 489.598 187.298C488.116 187.298 486.66 186.914 485.372 186.185C482.065 187.194 480.038 190.535 479.29 193.48H499.905C499.157 190.535 497.13 187.194 493.824 186.185ZM489.598 170.487C488.128 170.486 486.692 170.92 485.469 171.735C484.247 172.549 483.293 173.708 482.73 175.064C482.167 176.42 482.019 177.913 482.304 179.353C482.59 180.794 483.297 182.117 484.335 183.156C485.374 184.195 486.697 184.902 488.138 185.189C489.58 185.476 491.073 185.33 492.431 184.768C493.789 184.206 494.949 183.255 495.766 182.034C496.582 180.814 497.018 179.378 497.018 177.91C497.016 175.943 496.234 174.057 494.843 172.666C493.452 171.275 491.566 170.491 489.598 170.487ZM489.598 183.561C488.482 183.538 487.396 183.191 486.474 182.562C485.552 181.933 484.834 181.049 484.407 180.018H494.789C494.361 181.049 493.643 181.933 492.721 182.564C491.8 183.194 490.714 183.543 489.598 183.568V183.561Z" fill="white"/>
<path opacity="0.1" d="M302.632 49.6258C300.889 48.6167 298.533 49.5809 297.336 51.203C296.139 52.825 295.84 54.9404 295.503 56.9063C294.837 61.324 294.351 66.3994 297.336 69.7332C292.459 54.9554 278.433 43.6309 262.927 41.979" stroke="#6C63FF" stroke-width="3" stroke-miterlimit="10"/>
<path opacity="0.1" d="M604.852 293.494C603.73 292.844 602.219 293.494 601.448 294.511C600.766 295.619 600.36 296.875 600.267 298.173C599.84 301.021 599.519 304.28 601.448 306.396C599.806 301.652 596.863 297.464 592.955 294.309C589.047 291.155 584.331 289.161 579.345 288.553" stroke="#6C63FF" stroke-width="3" stroke-miterlimit="10"/>
<path opacity="0.1" d="M223.739 196.859C222.617 196.216 221.106 196.859 220.335 197.875C219.651 198.986 219.246 200.245 219.153 201.545C218.727 204.386 218.405 207.645 220.335 209.768C218.691 205.025 215.748 200.838 211.84 197.684C207.932 194.529 203.217 192.534 198.231 191.925" stroke="#6C63FF" stroke-width="3" stroke-miterlimit="10"/>
<path d="M521.254 546.392C522.002 547.805 523.408 548.672 524.762 549.442C534.169 554.831 544.08 559.29 554.354 562.754C554.609 562.902 554.895 562.991 555.19 563.014C555.485 563.037 555.781 562.993 556.057 562.886C556.333 562.779 556.581 562.612 556.783 562.396C556.986 562.181 557.137 561.923 557.226 561.641C558.408 559.652 559.702 556.408 559.395 553.785C560.368 553.196 561.073 552.252 561.362 551.153C561.767 549.818 562.384 548.557 563.188 547.416C564.586 545.308 566.277 543.193 566.501 540.629C566.482 539.715 566.57 538.802 566.763 537.908C567.16 536.727 568.214 535.95 569.007 535.008C570.241 533.513 570.832 531.584 571.393 529.708C573.727 521.912 576.061 514.115 578.006 506.199C578.634 503.636 579.218 501.064 580.078 498.575C580.826 496.392 581.783 494.299 582.733 492.206C586.131 484.621 590.084 477.295 594.559 470.29C595.259 472.643 596.106 474.95 597.095 477.197C597.604 478.355 598.15 479.499 598.666 480.658C600.618 485.023 600.267 490.629 602.668 494.733C603.665 496.417 604.648 498.099 605.615 499.779C606.164 500.602 606.59 501.501 606.879 502.447C607.036 503.105 607.051 503.793 607.163 504.458C607.672 507.448 610.103 509.556 611.449 512.224C612.684 514.661 612.945 517.457 613.693 520.14C615.466 526.344 619.82 531.734 620.261 538.199C620.317 539.945 620.274 541.691 620.134 543.432C620.022 546.479 620.225 549.53 620.74 552.536C620.781 552.839 620.861 553.136 620.979 553.418C617.147 559.117 611.244 563.101 604.523 564.526C603.251 564.78 601.793 565.049 601.127 566.215C600.326 567.606 601.232 569.519 602.623 570.267C604.014 571.014 605.615 570.939 607.111 570.805C617.843 569.908 628.459 567.95 638.804 564.96C639.327 564.852 639.806 564.592 640.181 564.212C640.549 563.666 640.711 563.006 640.637 562.351C640.631 559.935 640.068 557.554 638.991 555.392L639.739 555.13C640.158 552.14 638.617 549.247 637.42 546.474C635.341 541.638 634.204 536.413 632.558 531.382C629.387 521.665 624.263 512.598 623.029 502.432C622.692 499.636 621.854 496.796 621.675 493.985C621.316 488.26 620.927 482.504 619.678 476.928C618.63 472.338 616.977 467.958 615.938 463.316C614.898 458.674 614.561 453.793 616.087 449.353C616.521 448.082 617.104 446.879 617.501 445.615C618.997 440.675 617.568 435.323 616.117 430.359C615.658 428.79 615.204 427.225 614.756 425.665C614.15 423.609 613.551 421.546 612.893 419.506C612.983 419.423 613.065 419.341 613.155 419.244C614.471 417.749 614.456 415.462 615.399 413.675C615.863 412.756 616.566 412.001 617.06 411.104C617.992 409.165 618.233 406.965 617.74 404.87C617.344 402.777 616.551 400.789 615.952 398.748C614.328 393.148 614.204 387.219 615.593 381.556C616.199 379.141 617.089 376.772 617.217 374.283C617.26 372.618 617.106 370.955 616.76 369.327C615.601 363.048 613.327 356.679 608.712 352.531C606.251 350.288 602.922 348.322 602.66 344.914C602.263 344.761 601.826 344.745 601.419 344.869C601.208 344.093 601.068 343.3 601 342.499H601.037C601.266 342.525 601.497 342.525 601.725 342.499C601.919 342.487 602.107 342.433 602.279 342.342C602.375 342.285 602.466 342.217 602.548 342.141C602.839 341.843 603.09 341.508 603.296 341.146C603.603 340.638 603.88 340.092 604.111 339.719C604.343 339.345 604.717 338.747 605.009 338.224C605.882 336.729 606.692 335.209 607.44 333.664V333.604C607.515 333.462 607.582 333.313 607.65 333.171L607.739 332.969L607.874 332.662C607.874 332.588 607.941 332.505 607.971 332.431C608.001 332.356 608.053 332.244 608.091 332.147L608.196 331.9C608.233 331.81 608.263 331.721 608.3 331.623C608.337 331.54 608.37 331.456 608.398 331.369C608.435 331.28 608.465 331.19 608.495 331.1C608.525 331.011 608.555 330.928 608.592 330.839C608.629 330.749 608.644 330.659 608.674 330.569L608.764 330.3C608.764 330.211 608.809 330.128 608.839 330.039L608.914 329.762L608.981 329.501L609.048 329.217C609.048 329.134 609.048 329.052 609.101 328.962C609.153 328.873 609.101 328.768 609.153 328.671C609.205 328.574 609.153 328.506 609.153 328.424L609.198 328.133V327.886C609.198 327.781 609.198 327.684 609.198 327.587C609.198 327.49 609.198 327.423 609.198 327.34C609.198 327.258 609.198 327.139 609.198 327.041V326.869C609.198 326.765 609.198 326.668 609.198 326.563C609.198 326.458 609.198 326.413 609.198 326.339C609.198 326.264 609.198 326.129 609.198 326.025C609.198 325.92 609.198 325.883 609.198 325.815C609.162 325.523 609.105 325.233 609.026 324.948C608.522 323.207 607.499 321.661 606.094 320.516C604.734 319.407 603.223 318.498 601.606 317.817C601.212 317.666 600.851 317.44 600.543 317.152C600.184 316.63 599.885 316.068 599.653 315.478C598.995 314.327 597.679 313.811 596.444 313.504C595.21 313.198 593.886 313.003 592.854 312.219C592.762 312.139 592.655 312.078 592.54 312.039C592.381 312.027 592.223 312.06 592.083 312.136L589.204 313.415C589.175 313.236 589.11 313.065 589.015 312.911C588.919 312.758 588.794 312.624 588.646 312.519C588.499 312.414 588.332 312.34 588.155 312.3C587.979 312.26 587.796 312.255 587.618 312.286C586.908 312.458 586.262 312.829 585.755 313.355C585.667 313.266 585.605 313.156 585.575 313.035C585.545 312.914 585.547 312.787 585.583 312.667L583.339 314.162C583.062 314.342 582.554 314.386 582.591 314.043C581.343 315.405 580.261 316.91 579.367 318.527C579.088 319.021 578.852 319.539 578.664 320.075V320.075C578.664 320.187 578.597 320.299 578.567 320.411C578.563 320.433 578.563 320.456 578.567 320.478C578.567 320.576 578.522 320.68 578.507 320.785C578.503 320.815 578.503 320.845 578.507 320.875C578.507 321.002 578.507 321.136 578.507 321.263C578.499 321.408 578.499 321.552 578.507 321.697C578.53 322.112 578.662 322.514 578.889 322.863C579.116 323.212 579.43 323.495 579.801 323.685C580.088 323.792 580.393 323.84 580.699 323.827C581.342 323.751 581.977 323.621 582.599 323.438C582.8 323.389 583.005 323.354 583.212 323.334C583.309 323.326 583.407 323.326 583.504 323.334C583.895 323.325 584.276 323.454 584.581 323.7L584.626 323.745C582.992 324.92 581.664 326.469 580.753 328.262C579.842 330.056 579.374 332.041 579.39 334.053C579.386 336.032 579.837 337.985 580.706 339.764C580.407 339.929 580.161 340.175 579.995 340.474C579.83 340.773 579.752 341.112 579.771 341.453C579.576 340.88 579.472 340.279 579.464 339.674C578.238 339.427 577.347 340.862 576.906 342.096C575.999 344.884 575.296 347.734 574.804 350.625C574.423 352.546 574.056 354.467 573.667 356.388C573.278 358.309 572.919 360.372 572.635 362.368C571.974 367.549 572.21 372.806 573.331 377.908C573.256 378.072 573.189 378.244 573.121 378.409C572.897 379.007 572.261 379.515 572.186 380.15C571.782 383.955 574.191 387.386 576.465 390.369C576.651 390.674 576.907 390.93 577.213 391.116C577.546 391.254 577.91 391.301 578.268 391.251C579.174 391.206 580.078 391.117 580.975 390.982C581.028 391.49 581.088 391.991 581.147 392.477C581.791 397.843 582.89 403.21 582.883 408.615C582.875 414.019 581.851 419.498 583.923 424.312C584.267 425.134 584.932 425.807 585 426.659H585.127C583.86 429.239 582.824 431.925 582.03 434.687C581.207 437.931 581.035 441.34 580.115 444.554C579.33 447.282 578.021 449.786 576.966 452.448C575.248 456.77 574.238 461.341 573.974 465.985C573.946 468.117 573.514 470.224 572.702 472.196C571.493 474.561 570.433 477.001 569.531 479.499C568.035 483.939 565.514 488.148 565.043 492.849C564.781 495.51 565.162 498.351 564.048 500.758C563.614 501.7 562.971 502.514 562.462 503.404C561.719 504.829 561.14 506.334 560.734 507.889L553.329 532.429C553.048 533.778 552.425 535.031 551.519 536.069C550.83 536.727 549.925 537.086 549.275 537.766C548.227 538.827 547.965 540.382 547.958 541.967C547.164 542.11 546.394 542.362 545.669 542.714C542.537 544.051 539.167 544.741 535.762 544.741C532.356 544.741 528.986 544.051 525.854 542.714C524.657 542.199 523.296 541.586 522.114 542.176C520.73 542.894 520.506 544.979 521.254 546.392ZM580.25 360.506C580.693 358.475 581.527 356.548 582.703 354.833C584.379 352.075 586.144 349.346 587.745 346.528L588.201 346.087C588.328 346.446 588.448 346.835 588.56 347.171C588.838 348.129 589.06 349.103 589.226 350.086C589.462 351.317 589.533 352.574 589.435 353.824L589.331 353.906C588.726 354.295 588.237 354.84 587.917 355.483C587.707 356.124 587.707 356.816 587.917 357.457L587.85 357.531L587.924 357.479C588.186 358.511 588.672 359.572 588.515 360.619C588.343 361.882 587.326 362.801 586.69 363.885C585.194 366.494 585.673 370.455 583.212 372.055L583.167 372.16C582.639 372.035 582.146 371.791 581.728 371.446C581.309 371.102 580.975 370.666 580.751 370.171V370.171C580.945 366.98 579.749 363.706 580.25 360.506Z" fill="url(#paint0_linear_3_79)"/>
<path d="M641.617 562.493C641.696 563.141 641.528 563.795 641.146 564.324C640.747 564.704 640.249 564.963 639.709 565.072C628.909 568.026 617.855 569.958 606.692 570.842C605.091 570.962 603.401 571.052 601.987 570.312C600.573 569.572 599.631 567.68 600.491 566.313C601.187 565.161 602.735 564.892 604.029 564.646C611.034 563.28 617.241 559.263 621.353 553.433C621.844 552.598 622.483 551.858 623.238 551.251C624.674 550.271 626.582 550.503 628.28 550.839C631.272 551.452 635.244 552.177 637.944 553.643C640.644 555.108 641.572 559.63 641.617 562.493Z" fill="#3F3D56"/>
<path opacity="0.1" d="M641.617 562.493C641.696 563.141 641.528 563.795 641.146 564.324C640.747 564.704 640.249 564.963 639.709 565.072C628.909 568.026 617.855 569.958 606.692 570.842C605.091 570.962 603.401 571.052 601.987 570.312C600.573 569.572 599.631 567.68 600.491 566.313C601.187 565.161 602.735 564.892 604.029 564.646C611.034 563.28 617.241 559.263 621.353 553.433C621.844 552.598 622.483 551.858 623.238 551.251C624.674 550.271 626.582 550.503 628.28 550.839C631.272 551.452 635.244 552.177 637.944 553.643C640.644 555.108 641.572 559.63 641.617 562.493Z" fill="black"/>
<path d="M554.69 561.768C554.399 562.354 553.9 562.812 553.291 563.054C552.753 563.144 552.2 563.079 551.698 562.867C541.031 559.464 530.708 555.067 520.865 549.733C519.459 548.986 517.993 548.119 517.207 546.743C516.422 545.368 516.661 543.252 518.105 542.557C519.316 541.974 520.738 542.557 521.979 543.088C528.602 545.757 536.002 545.757 542.625 543.088C543.493 542.653 544.433 542.379 545.4 542.281C547.128 542.243 548.616 543.462 549.888 544.68C552.072 546.826 554.997 549.599 556.463 552.29C557.929 554.981 556.209 559.339 554.69 561.768Z" fill="#3F3D56"/>
<path opacity="0.1" d="M554.69 561.768C554.399 562.354 553.9 562.812 553.291 563.054C552.753 563.144 552.2 563.079 551.698 562.867C541.031 559.464 530.708 555.067 520.865 549.733C519.459 548.986 517.993 548.119 517.207 546.743C516.422 545.368 516.661 543.252 518.105 542.557C519.316 541.974 520.738 542.557 521.979 543.088C528.602 545.757 536.002 545.757 542.625 543.088C543.493 542.653 544.433 542.379 545.4 542.281C547.128 542.243 548.616 543.462 549.888 544.68C552.072 546.826 554.997 549.599 556.463 552.29C557.929 554.981 556.209 559.339 554.69 561.768Z" fill="black"/>
<path d="M611.704 418.624C612.818 421.614 613.753 424.604 614.696 427.594L616.117 432.228C617.613 437.124 619.109 442.401 617.561 447.282C617.149 448.546 616.543 449.734 616.065 451.02C614.479 455.4 614.845 460.266 615.907 464.804C616.97 469.341 618.69 473.699 619.782 478.258C621.106 483.76 621.488 489.471 621.862 495.084C622.049 497.857 622.916 500.661 623.275 503.419C624.562 513.443 629.895 522.427 633.202 531.98C634.915 536.936 636.096 542.086 638.273 546.863C639.515 549.599 641.123 552.432 640.689 555.399C634.608 557.552 627.868 557.515 622.138 554.562C621.778 554.432 621.464 554.197 621.24 553.886C621.016 553.575 620.891 553.203 620.882 552.82C620.356 549.861 620.155 546.853 620.283 543.851C620.427 542.14 620.469 540.423 620.411 538.708C619.954 532.332 615.414 527.017 613.574 520.888C612.826 518.279 612.482 515.491 611.195 513.084C609.789 510.453 607.26 508.352 606.707 505.422C606.587 504.764 606.572 504.092 606.415 503.441C606.108 502.501 605.662 501.611 605.091 500.803L602.039 495.802C599.533 491.75 599.9 486.219 597.873 481.914C597.334 480.77 596.758 479.671 596.227 478.505C595.202 476.291 594.32 474.014 593.587 471.688C588.929 478.562 584.803 485.781 581.245 493.283C580.215 495.33 579.291 497.428 578.477 499.569C577.579 502.021 576.981 504.562 576.315 507.089C574.295 514.9 571.827 522.592 569.426 530.261C568.842 532.115 568.222 533.999 566.943 535.494C566.12 536.42 565.028 537.183 564.609 538.356C564.41 539.234 564.319 540.133 564.339 541.032C564.1 543.566 562.342 545.652 560.884 547.76C560.046 548.891 559.404 550.154 558.984 551.497C558.811 552.099 558.512 552.657 558.106 553.133C557.7 553.61 557.197 553.993 556.63 554.259C556.063 554.525 555.445 554.666 554.819 554.673C554.193 554.68 553.572 554.553 553 554.3H552.94C552.346 554.005 551.776 553.665 551.234 553.284C549.818 552.395 548.475 551.395 547.217 550.294C546.105 549.22 545.102 548.038 544.225 546.766C544.075 546.549 543.976 546.3 543.938 546.039C543.9 545.777 543.923 545.511 544.006 545.26C544.089 545.009 544.229 544.781 544.415 544.594C544.601 544.406 544.828 544.264 545.078 544.179C544.921 542.101 544.876 539.732 546.372 538.297C547.068 537.624 548.01 537.265 548.728 536.622C549.663 535.614 550.313 534.376 550.613 533.034C553.167 525.001 555.715 516.968 558.258 508.935C558.683 507.39 559.288 505.9 560.061 504.495C560.592 503.613 561.258 502.813 561.714 501.886C562.873 499.509 562.462 496.714 562.746 494.083C563.232 489.441 565.835 485.3 567.414 480.919C568.358 478.446 569.462 476.036 570.72 473.706C571.565 471.774 572.015 469.693 572.044 467.584C572.321 462.988 573.373 458.472 575.156 454.227C576.248 451.625 577.617 449.136 578.432 446.438C579.397 443.268 579.569 439.905 580.437 436.72C581.27 433.976 582.354 431.313 583.676 428.767C584.76 426.525 585.875 424.23 587.663 422.488C590.595 419.633 594.911 418.698 599.002 418.571C603.094 418.444 607.627 419.05 611.704 418.624Z" fill="#3F3D56"/>
<path d="M586.593 360.409C591.859 357.3 597.068 354.09 602.219 350.782C600.986 349.121 600.303 347.116 600.267 345.048C600.267 344.966 600.267 344.884 600.267 344.802C600.192 342.791 600.955 341.064 598.419 341.326C595.983 341.64 593.575 342.14 591.216 342.821C590.542 342.993 584.708 345.138 584.484 344.921C585.784 346.463 586.745 348.261 587.303 350.199C587.591 351.144 587.823 352.104 587.999 353.076C588.508 355.648 588.53 358.668 586.593 360.409Z" fill="#A0616A"/>
<path d="M579.524 394.891C580.197 400.183 581.342 405.483 581.334 410.805C581.327 416.127 580.257 421.546 582.419 426.315C582.778 427.123 583.466 427.75 583.541 428.633C586.533 429.148 589.45 427.75 592.3 426.741C594.913 425.826 597.625 425.219 600.379 424.932C602.623 424.708 604.927 424.693 607.156 424.267C609.377 423.92 611.429 422.872 613.013 421.277C614.382 419.782 614.367 417.54 615.324 415.783C615.81 414.879 616.543 414.139 617.059 413.249C618.024 411.349 618.274 409.166 617.763 407.097C617.244 405.054 616.622 403.038 615.9 401.058C614.203 395.551 614.074 389.681 615.526 384.105C616.154 381.72 617.067 379.38 617.216 376.921C617.261 375.279 617.103 373.637 616.745 372.033C615.533 365.843 613.162 359.557 608.36 355.468C605.794 353.278 602.324 351.312 602.054 347.993C600.947 347.56 599.758 348.3 598.808 349.003L588.141 356.859C587.508 357.232 586.991 357.773 586.645 358.421C585.979 360.013 587.513 361.762 587.266 363.481C587.087 364.73 586.024 365.634 585.366 366.711C583.795 369.274 584.304 373.184 581.738 374.761C581.506 375.239 581.289 375.733 581.095 376.256C580.178 378.868 579.564 381.577 579.262 384.329C578.904 387.846 578.992 391.395 579.524 394.891V394.891Z" fill="#3F3D56"/>
<path opacity="0.1" d="M584.513 344.936C585.814 346.478 586.775 348.276 587.333 350.214C588.183 350.403 589.051 350.498 589.921 350.498C594.275 350.498 597.192 345.512 599.354 342.088C599.287 340.078 600.955 341.079 598.419 341.341C595.983 341.655 593.575 342.155 591.216 342.836C590.542 343.008 584.708 345.153 584.513 344.936Z" fill="black"/>
<path d="M589.922 349.473C596.68 349.473 602.159 343.998 602.159 337.245C602.159 330.491 596.68 325.016 589.922 325.016C583.163 325.016 577.684 330.491 577.684 337.245C577.684 343.998 583.163 349.473 589.922 349.473Z" fill="#A0616A"/>
<path d="M580.56 345.904L583.389 349.001C584.316 350.016 585.892 350.088 586.908 349.161L596.41 340.493C597.426 339.566 597.498 337.992 596.571 336.977L593.741 333.88C592.814 332.864 591.239 332.793 590.223 333.719L580.72 342.387C579.704 343.314 579.632 344.888 580.56 345.904Z" fill="#3F3D56"/>
<path opacity="0.1" d="M580.56 345.904L583.389 349.001C584.316 350.016 585.892 350.088 586.908 349.161L596.41 340.493C597.426 339.566 597.498 337.992 596.571 336.977L593.741 333.88C592.814 332.864 591.239 332.793 590.223 333.719L580.72 342.387C579.704 343.314 579.632 344.888 580.56 345.904Z" fill="black"/>
<path d="M590.684 340.556C591.246 340.556 591.702 340.101 591.702 339.539C591.702 338.978 591.246 338.523 590.684 338.523C590.123 338.523 589.667 338.978 589.667 339.539C589.667 340.101 590.123 340.556 590.684 340.556Z" fill="white"/>
<path opacity="0.1" d="M579.524 394.891C588.964 393.501 597.536 387.835 604.096 380.808C605.323 379.652 606.271 378.234 606.871 376.66C607.201 375.344 607.315 373.983 607.208 372.631L607.051 367.234C606.984 364.872 606.886 362.42 605.742 360.357C604.598 358.294 602.047 356.806 599.848 357.666C594.065 359.908 590.303 365.036 586.997 370.284C586.051 371.919 585.02 373.503 583.907 375.03C583.346 375.74 582.583 376.465 581.663 376.368C581.469 376.351 581.279 376.3 581.102 376.219C580.186 378.831 579.571 381.54 579.27 384.292C578.906 387.821 578.992 391.383 579.524 394.891Z" fill="black"/>
<path d="M578.679 363.377C579.148 361.356 580.017 359.449 581.237 357.771C584.895 352.052 589.009 346.469 590.961 339.958C588.111 340.474 587.662 345.377 584.775 345.594L584.999 342.058C584.999 341.46 585 340.735 584.513 340.421C584.027 340.107 583.159 340.519 582.838 341.109C582.516 341.7 582.449 342.417 582.15 343.023C581.85 343.628 581.147 344.166 580.526 343.897L580.272 342.724C580.005 342.668 579.729 342.673 579.465 342.74C579.2 342.807 578.954 342.933 578.746 343.109C578.538 343.285 578.372 343.506 578.262 343.755C578.152 344.004 578.1 344.275 578.11 344.548C577.906 343.984 577.798 343.39 577.789 342.791C576.51 342.552 575.582 343.964 575.126 345.183C574.179 347.926 573.443 350.737 572.927 353.592L571.752 359.281C571.341 361.246 570.937 363.212 570.668 365.193C569.963 370.451 570.242 375.794 571.49 380.95C573.058 380.082 574.579 379.131 576.046 378.102C577.175 377.146 578.439 376.062 578.866 374.604C579.92 370.926 578.058 367.077 578.679 363.377Z" fill="#A0616A"/>
<path d="M599.848 356.141C602.047 355.281 604.598 356.769 605.742 358.832C606.887 360.895 606.984 363.317 607.051 365.709L607.201 371.121C607.313 372.473 607.202 373.834 606.872 375.15C606.27 376.721 605.324 378.139 604.104 379.298C596.848 387.065 587.146 393.157 576.525 393.672C576.153 393.722 575.774 393.676 575.425 393.538C575.123 393.348 574.867 393.092 574.677 392.79C572.306 389.845 569.8 386.459 570.189 382.707C570.256 382.079 570.937 381.571 571.161 380.988C572.586 377.59 575.2 374.827 578.514 373.214L579.158 372.915C579.405 373.41 579.76 373.843 580.196 374.185C580.632 374.526 581.138 374.766 581.678 374.888C582.576 374.978 583.347 374.26 583.922 373.55C585.035 372.021 586.066 370.434 587.012 368.796C590.303 363.496 594.073 358.391 599.848 356.141Z" fill="#3F3D56"/>
<path d="M599.092 345.243C598.052 344.705 597.888 343.322 597.783 342.156C597.666 340.798 597.459 339.449 597.162 338.119C596.841 336.624 596.31 335.084 595.038 334.292C594.591 334.016 594.082 333.858 593.558 333.832C593.033 333.806 592.511 333.913 592.04 334.144C591.568 334.375 591.163 334.721 590.862 335.151C590.561 335.581 590.374 336.08 590.318 336.602C590.333 336.851 590.258 337.097 590.108 337.297C590.008 337.391 589.884 337.456 589.749 337.484C589.162 337.618 588.546 337.529 588.022 337.233C587.497 336.937 587.102 336.456 586.914 335.884C586.698 335.137 586.862 334.172 586.331 333.559C585.8 332.947 585.172 332.961 584.655 332.558C584.343 332.249 584.104 331.873 583.958 331.459C583.812 331.044 583.761 330.602 583.81 330.166C583.81 329.052 583.96 327.722 583.062 327.034C581.708 325.98 579.674 327.654 578.08 327.034C577.639 326.819 577.273 326.477 577.029 326.052C576.785 325.627 576.674 325.138 576.712 324.649C576.803 323.671 577.138 322.731 577.684 321.914C578.621 320.311 579.748 318.827 581.043 317.496C581.043 317.825 581.559 317.787 581.843 317.608L584.207 316.173C584.167 316.292 584.164 316.42 584.197 316.541C584.23 316.662 584.299 316.771 584.394 316.853C584.931 316.333 585.601 315.97 586.331 315.807C586.698 315.738 587.077 315.817 587.386 316.025C587.695 316.234 587.91 316.555 587.984 316.92L590.976 315.627C591.098 315.544 591.245 315.506 591.392 315.521C591.538 315.536 591.675 315.603 591.777 315.709C592.854 316.457 594.23 316.674 595.517 316.973C596.803 317.272 598.172 317.787 598.86 318.924C599.106 319.507 599.42 320.058 599.795 320.568C600.126 320.859 600.51 321.085 600.925 321.233C602.611 321.896 604.197 322.789 605.637 323.887C607.083 324.999 608.151 326.528 608.697 328.267C609.505 331.175 608.338 334.247 606.984 336.931C605.951 338.981 604.792 340.966 603.513 342.873C603.034 343.621 602.376 345.033 601.605 345.467C600.768 345.7 599.875 345.62 599.092 345.243V345.243Z" fill="#3F3D56"/>
<path opacity="0.1" d="M578.103 323.984C579.696 324.597 581.731 322.923 583.085 323.984C583.96 324.672 583.833 326.002 583.833 327.116C583.784 327.553 583.834 327.995 583.981 328.409C584.127 328.823 584.365 329.199 584.678 329.508C585.194 329.912 585.927 330.009 586.354 330.51C586.78 331.011 586.72 332.057 586.937 332.834C587.125 333.406 587.52 333.887 588.044 334.183C588.569 334.479 589.185 334.568 589.772 334.434C589.907 334.406 590.031 334.341 590.131 334.247C590.281 334.048 590.355 333.801 590.34 333.552C590.396 333.03 590.583 332.531 590.884 332.101C591.185 331.672 591.59 331.325 592.062 331.094C592.534 330.864 593.056 330.756 593.58 330.782C594.105 330.808 594.614 330.966 595.06 331.242C596.332 332.035 596.863 333.604 597.185 335.069C597.481 336.4 597.689 337.748 597.806 339.106C597.91 340.272 598.075 341.655 599.115 342.193C599.91 342.582 600.822 342.662 601.673 342.417C602.421 341.984 603.102 340.549 603.58 339.823C604.86 337.904 606.02 335.907 607.051 333.844C607.91 332.248 608.53 330.536 608.891 328.761C609.43 331.511 608.323 334.367 607.051 336.901C606.018 338.951 604.859 340.936 603.58 342.843C603.102 343.591 602.443 345.004 601.673 345.437C600.822 345.681 599.91 345.602 599.115 345.213C598.075 344.675 597.91 343.292 597.806 342.126C597.689 340.768 597.481 339.419 597.185 338.089C596.863 336.594 596.332 335.054 595.06 334.262C594.614 333.986 594.105 333.828 593.58 333.802C593.056 333.776 592.534 333.883 592.062 334.114C591.59 334.345 591.185 334.691 590.884 335.121C590.583 335.551 590.396 336.05 590.34 336.572C590.355 336.821 590.281 337.067 590.131 337.267C590.031 337.361 589.907 337.426 589.772 337.454C589.185 337.588 588.569 337.499 588.044 337.203C587.52 336.907 587.125 336.426 586.937 335.854C586.72 335.107 586.885 334.143 586.354 333.53C585.822 332.917 585.194 332.932 584.678 332.528C584.365 332.219 584.127 331.843 583.981 331.429C583.834 331.015 583.784 330.573 583.833 330.136C583.833 329.022 583.982 327.692 583.085 327.004C581.731 325.95 579.696 327.624 578.103 327.004C577.662 326.79 577.295 326.447 577.051 326.022C576.807 325.597 576.697 325.108 576.734 324.619C576.761 324.08 576.887 323.55 577.108 323.057C577.323 323.471 577.674 323.799 578.103 323.984V323.984Z" fill="black"/>
</g>
<defs>
<linearGradient id="paint0_linear_3_79" x1="580.743" y1="570.895" x2="580.743" y2="312.024" gradientUnits="userSpaceOnUse">
<stop stop-color="#808080" stop-opacity="0.25"/>
<stop offset="0.54" stop-color="#808080" stop-opacity="0.12"/>
<stop offset="1" stop-color="#808080" stop-opacity="0.1"/>
</linearGradient>
<clipPath id="clip0_3_79">
<rect width="857" height="576" fill="white"/>
</clipPath>
</defs>
</svg>
